<?xml version="1.0" encoding="UTF-8"?>
<svg xmlns="http://www.w3.org/2000/svg" data-name="Layer 1" viewBox="0 0 1660 500">
  <title>MLCommons</title>
  <path d="M281.4263,380.1769c0,54.6592,24.0117,87.5176,68.2451,87.5176,37.9131,0,54.3428-27.4873,59.3974-44.2325a2.0216,2.0216,0,0,1,2.212-1.58h27.8037c.9472,0,1.5791.3154,1.5791,1.58,0,20.8526-24.959,71.0889-90.9922,71.0889-69.5093,0-99.84-47.3926-99.84-114.374s36.65-114.374,99.84-114.374c68.876,0,90.9922,53.7119,90.9922,71.0888,0,1.2647-.6319,1.58-1.5791,1.58H411.2808a2.3772,2.3772,0,0,1-2.212-1.58c-4.7392-13.5849-17.6923-44.2324-59.3974-44.2324C305.438,292.6593,281.4263,325.5177,281.4263,380.1769Zm333.9531,31.2783c0,49.2891-29.0674,83.0957-78.3555,83.0957-49.6045,0-78.3554-33.8066-78.3554-83.0957,0-49.6035,28.7509-83.0937,78.3554-83.0937C586.312,328.3615,615.3794,362.1681,615.3794,411.4552Zm-30.0156,0c0-32.8574-18.0088-56.2383-48.34-56.2383-30.0156,0-48.34,23.3809-48.34,56.2383,0,32.8594,18.3242,56.2393,48.34,56.2393C567.355,467.6945,585.3638,444.3146,585.3638,411.4552Zm224.0039-83.0937c-15.1651,0-35.7022,5.0546-47.708,18.957-1.58,1.58-2.2119,1.2637-3.792,0-14.85-14.2178-23.6953-18.957-45.8125-18.957-15.4815,0-31.91,7.582-37.5977,18.957-.6318,1.2637-3.1592,1.8955-3.791,0l-3.16-14.2178c-.3154-.9482-.6318-1.58-1.5791-1.58H642.231a1.4926,1.4926,0,0,0-1.58,1.58v156.71a1.4926,1.4926,0,0,0,1.58,1.58h26.8554a1.4926,1.4926,0,0,0,1.58-1.58V402.9259c0-24.6445,8.53-47.709,35.07-47.709,30.0147,0,35.3858,23.0645,35.3858,47.709v86.8848a1.1593,1.1593,0,0,0,.3164.9482c0,.3154.3154.6318.9472.6318h27.1719a1.16,1.16,0,0,0,.9482-.3164,1.64,1.64,0,0,0,.6319-1.2636V402.9259c0-24.6445,5.3711-47.709,35.07-47.709,31.2783,0,35.3857,23.6963,35.3857,47.709v86.8848a1.4926,1.4926,0,0,0,1.58,1.58H870.03a1.4926,1.4926,0,0,0,1.58-1.58V402.9259C871.61,355.5333,850.4409,328.3615,809.3677,328.3615Zm267.2866,0c-15.166,0-35.7031,5.0546-47.709,18.957-1.58,1.58-2.2109,1.2637-3.791,0-14.85-14.2178-23.6953-18.957-45.8125-18.957-15.4824,0-31.91,7.582-37.5981,18.957-.6319,1.2637-3.1592,1.8955-3.7911,0l-3.16-14.2178c-.3154-.9482-.6319-1.58-1.5791-1.58H909.5171a1.4926,1.4926,0,0,0-1.58,1.58v156.71a1.4926,1.4926,0,0,0,1.58,1.58h26.8555a1.4925,1.4925,0,0,0,1.58-1.58V402.9259c0-24.6445,8.53-47.709,35.0708-47.709,30.0137,0,35.3848,23.0645,35.3848,47.709v86.8848a1.1593,1.1593,0,0,0,.3164.9482c0,.3154.3164.6318.9473.6318h27.1719a1.1623,1.1623,0,0,0,.9492-.3164,1.6426,1.6426,0,0,0,.6308-1.2636V402.9259c0-24.6445,5.3711-47.709,35.07-47.709,31.2793,0,35.3868,23.6963,35.3868,47.709v86.8848a1.492,1.492,0,0,0,1.58,1.58h26.8555a1.4931,1.4931,0,0,0,1.58-1.58V402.9259C1138.8965,355.5333,1117.7266,328.3615,1076.6543,328.3615Zm241.6934,83.0937c0,49.2891-29.0665,83.0957-78.3555,83.0957-49.6035,0-78.3555-33.8066-78.3555-83.0957,0-49.6035,28.752-83.0937,78.3555-83.0937C1289.2812,328.3615,1318.3477,362.1681,1318.3477,411.4552Zm-30.0157,0c0-32.8574-18.0078-56.2383-48.34-56.2383-30.0156,0-48.34,23.3809-48.34,56.2383,0,32.8594,18.3243,56.2393,48.34,56.2393C1270.3242,467.6945,1288.332,444.3146,1288.332,411.4552ZM1421.66,328.3615c-21.168,0-35.07,9.7949-41.3887,19.2734-.6328.9473-3.16,1.5791-3.4766-.3164l-3.16-14.2178c-.3145-.9482-.6309-1.58-1.5782-1.58h-23.6972a1.4932,1.4932,0,0,0-1.58,1.58v156.71a1.4931,1.4931,0,0,0,1.58,1.58h26.8554a1.492,1.492,0,0,0,1.58-1.58V402.9259c0-24.6445,15.166-47.709,41.7051-47.709,31.2793,0,42.0215,23.6963,42.0215,47.709v86.8848a1.4931,1.4931,0,0,0,1.58,1.58h26.8554a1.4931,1.4931,0,0,0,1.58-1.58V402.9259C1490.5371,361.8517,1467.4727,328.3615,1421.66,328.3615Zm164.2871,67.6132c-15.7989-2.2119-38.5469-2.5273-38.5469-20.5371,0-9.7949,10.4277-20.2207,34.123-20.2207,25.5918,0,39.4942,11.374,39.4942,28.752a1.4919,1.4919,0,0,0,1.58,1.5791h27.17c.9492,0,1.2636-.6319,1.2636-1.5791,0-37.2832-30.6464-55.6074-69.5078-55.6074-39.1777,0-64.1367,21.1679-64.1367,47.0761,0,39.1778,38.2285,43.917,68.5606,47.3926,13.2695,1.58,39.4922,2.8438,39.4922,20.8525,0,20.5362-23.379,24.0118-39.4922,24.0118-25.2754,0-41.3907-12.9541-41.3907-28.751a1.7684,1.7684,0,0,0-1.8945-1.58H1516.123a1.492,1.492,0,0,0-1.58,1.58c0,30.331,23.3789,55.6074,71.4043,55.6074,39.4922,0,69.5078-14.85,69.5078-50.8682C1655.4551,403.2413,1617.541,400.3976,1585.9473,395.9747ZM229.0073,5H177.8237c-.9482,0-1.58.3154-2.2119,1.5791L119.3735,196.1484a1.6459,1.6459,0,0,1-3.16,0L59.9751,6.5791C59.3433,5.3154,58.7114,5,57.7632,5H6.58A1.4922,1.4922,0,0,0,5,6.5791V225.8477a1.4924,1.4924,0,0,0,1.58,1.58H33.4351a1.4925,1.4925,0,0,0,1.58-1.58V36.5947a1.595,1.595,0,0,1,3.1592-.3164L93.7817,225.8477a2.8124,2.8124,0,0,0,2.5274,1.58h42.9687a2.8124,2.8124,0,0,0,2.5274-1.58L197.4126,36.2783c.3154-1.5791,3.1592-1.8955,3.1592.3164v189.253a1.4926,1.4926,0,0,0,1.58,1.58h26.8554a1.4926,1.4926,0,0,0,1.58-1.58V6.5791A1.4923,1.4923,0,0,0,229.0073,5ZM270.542,227.4277H424.1631a1.4931,1.4931,0,0,0,1.58-1.58V202.1514a1.4928,1.4928,0,0,0-1.58-1.5791H300.5576a1.4927,1.4927,0,0,1-1.58-1.58V6.5791A1.4921,1.4921,0,0,0,297.3984,5H270.542a1.4921,1.4921,0,0,0-1.5791,1.5791V225.8477A1.4923,1.4923,0,0,0,270.542,227.4277Z"></path>
  <circle cx="117.772" cy="378.6187" r="67.0305" fill="#CCEBD4"></circle>
</svg>
